<svg viewBox="0 0 140 140" preserveAspectRatio="xMidYMid meet"><path d="M131.25 55.417h-10.862a52.237 52.237 0 00-4.45-10.734l7.682-7.676a8.75 8.75 0 000-12.379l-8.254-8.242a8.75 8.75 0 00-12.373 0l-7.688 7.682a51.952 51.952 0 00-10.722-4.45V8.75A8.75 8.75 0 0075.833 0H64.167a8.75 8.75 0 00-8.75 8.75v10.867a52.32 52.32 0 00-10.728 4.451l-7.688-7.682a8.75 8.75 0 00-12.373 0l-8.254 8.248a8.75 8.75 0 000 12.378l7.689 7.683a51.788 51.788 0 00-4.451 10.722H8.75A8.75 8.75 0 000 64.167v11.666a8.75 8.75 0 008.75 8.75h10.862a51.788 51.788 0 004.45 10.728l-7.694 7.694a8.75 8.75 0 000 12.373l8.249 8.248a9.012 9.012 0 0012.378 0l7.688-7.683a52.366 52.366 0 0010.734 4.457v10.85a8.75 8.75 0 008.75 8.75h11.666a8.75 8.75 0 008.75-8.75V120.4a52.296 52.296 0 0010.728-4.45l7.688 7.682a8.75 8.75 0 0012.373 0l8.248-8.249a8.75 8.75 0 000-12.372l-7.682-7.683a51.97 51.97 0 004.45-10.733h10.862a8.75 8.75 0 008.75-8.762V64.167a8.75 8.75 0 00-8.75-8.75zM70 99.167A29.167 29.167 0 1199.167 70 29.202 29.202 0 0170 99.167z"/></svg>