<svg viewBox="0 0 140 140" preserveAspectRatio="xMidYMid meet">
    <path d="M70,140 C73.5,140 75.8333333,137.666667 75.8333333,134.166667 L75.8333333,129.5 C75.8333333,128.916667 76.4166667,128.333333 77,128.333333 C104.416667,124.833333 125.416667,101.5 125.416667,73.5 L125.416667,58.3333333 C125.416667,54.8333333 123.083333,52.5 119.583333,52.5 C116.083333,52.5 113.75,54.8333333 113.75,58.3333333 L113.75,72.9166667 C113.75,96.8333333 93.9166667,116.666667 70,116.666667 C46.0833333,116.666667 26.25,96.8333333 26.25,72.9166667 L26.25,58.3333333 C26.25,54.8333333 23.9166667,52.5 20.4166667,52.5 C16.9166667,52.5 14.5833333,54.8333333 14.5833333,58.3333333 L14.5833333,72.9166667 C14.5833333,100.916667 35,124.25 63,127.75 C63.5833333,127.75 64.1666667,128.333333 64.1666667,128.916667 L64.1666667,134.166667 C64.1666667,137.666667 66.5,140 70,140 Z M70,107.916667 L70,107.916667 C89.25,107.916667 105,92.1666667 105,72.9166667 L105,35 C105,15.75 89.25,0 70,0 L70,0 C50.75,0 35,15.75 35,35 L35,72.9166667 C35,92.1666667 50.75,107.916667 70,107.916667 Z" />
</svg>