<svg viewBox="0 0 140 140" preserveAspectRatio="xMidYMid meet">
    <path d="M70,116.666667 C45.8482041,116.640946 26.2757208,97.0684626 26.25,72.9166667 L26.25,58.3333333 C26.25,55.1116723 23.6383277,52.5 20.4166667,52.5 C17.1950056,52.5 14.5833333,55.1116723 14.5833333,58.3333333 L14.5833333,72.9166667 C14.618151,100.763045 35.2830553,124.272431 62.895,127.878333 C63.6236456,127.969754 64.1694302,128.590647 64.1666667,129.325 L64.1666667,134.166667 C64.1666667,137.388328 66.778339,140 70,140 C73.221661,140 75.8333333,137.388328 75.8333333,134.166667 L75.8333333,129.325 C75.8305698,128.590647 76.3763544,127.969754 77.105,127.878333 C85.1171446,126.841648 92.8027249,124.053409 99.6158333,119.711667 C99.9900252,119.474686 100.236238,119.08049 100.285026,118.640264 C100.333814,118.200038 100.179889,117.761497 99.8666667,117.448333 L93.5025,111.084167 C93.0378562,110.622017 92.3219989,110.52657 91.7525,110.850833 C85.1387306,114.667306 77.6359258,116.673285 70,116.666667 L70,116.666667 Z M37.4908333,55.1075 C37.0744586,54.6900684 36.4476954,54.5644178 35.9025932,54.7890969 C35.3574911,55.0137761 35.001303,55.5445775 35,56.1341667 L35,72.9166667 C35.0010997,84.8026083 41.0343231,95.8756841 51.0210525,102.320903 C61.0077818,108.766122 73.5829931,109.702527 84.4141667,104.8075 C84.8406328,104.607982 85.144536,104.214842 85.2301862,103.751868 C85.3158364,103.288894 85.1726951,102.81305 84.8458333,102.474167 L37.4908333,55.1075 Z M138.290833,130.083333 L115.2375,107.03 C114.730167,106.52719 114.665746,105.729362 115.085833,105.151667 C121.823826,95.7554963 125.437766,84.4790244 125.416667,72.9166667 L125.416667,58.3333333 C125.416667,55.1116723 122.804994,52.5 119.583333,52.5 C116.361672,52.5 113.75,55.1116723 113.75,58.3333333 L113.75,72.9166667 C113.760873,81.1774303 111.419922,89.2706028 107.000833,96.25 C106.763152,96.6237129 106.367952,96.8685652 105.9275,96.915 C105.495996,96.9604213 105.06711,96.8081667 104.760833,96.5008333 L100.514167,92.26 C100.055822,91.7930311 99.9629509,91.0786367 100.286667,90.51 C103.39252,85.1682847 105.019405,79.0956527 105,72.9166667 L105,35 C104.992309,17.600931 92.2049862,2.84923948 74.9831661,0.37202804 C57.7613461,-2.1051834 41.334662,8.44432312 36.4233333,25.1358333 C36.2752647,25.6279438 35.8800368,26.0064018 35.3819727,26.133008 C34.8839086,26.2596142 34.355929,26.1158325 33.9908333,25.7541667 L9.9575,1.75 C7.66277634,-0.486273262 4.00389033,-0.486273262 1.70916667,1.75 C-0.568061307,4.0279158 -0.568061307,7.72041753 1.70916667,9.99833333 L130.0425,138.331667 L130.0425,138.331667 L130.0425,138.331667 L130.083333,138.3725 C132.406127,140.443348 135.945475,140.326277 138.126346,138.106461 C140.307217,135.886646 140.361631,132.34578 138.25,130.06 L138.290833,130.083333 Z"/>
</svg>