<svg viewBox="0 0 140 140" preserveAspectRatio="xMidYMid meet">
    <path d="M99.39,120.37 C93.5077687,118.089653 87.3519962,116.590213 81.08,115.91 C80.4525944,115.834164 79.9804891,115.301972 79.98,114.67 L79.98,100.84 C80.0021104,99.8843643 79.6421907,98.9593706 78.98,98.27 L61.98,81.27 C61.1816244,80.4787648 60.1040309,80.0333595 58.98,80.03 L22.5,80.03 C21.8317281,80.0300481 21.1912543,79.7625419 20.7215413,79.2871924 C20.2518284,78.8118429 19.9919807,78.1682238 20,77.5 L20,40 C19.9968077,39.5548714 19.8211671,39.1283155 19.51,38.81 L12.87,32.18 C12.3843669,31.6921881 11.6502965,31.5499668 11.0176202,31.8211138 C10.3849439,32.0922608 9.98167624,32.7219127 9.9994007,33.41 L9.9994007,92.5 C9.9994007,96.6421356 13.3578644,100 17.5,100 L58.75,100 C59.4403559,100 60,100.559644 60,101.25 L60,114.67 C60.0040504,115.303688 59.5296506,115.838466 58.9,115.91 C52.6316729,116.586834 46.4791982,118.082928 40.6,120.36 C38.370177,121.255051 37.0922941,123.609615 37.5569273,125.967016 C38.0215604,128.324418 40.0973135,130.017996 42.5,130.000142 L97.5,130.000142 C99.8910652,130.00114 101.948293,128.309243 102.408783,125.962939 C102.869272,123.616634 101.604127,121.272683 99.39,120.37 Z M138.24,129.76 L108.49,100 L122.49,100 C126.632136,100 129.99,96.6421356 129.99,92.5 L129.99,17.5 C129.99,13.3578644 126.632136,10 122.49,10 L18.49,10 L10.24,1.76 C7.89745963,-0.579627024 4.10254037,-0.579627024 1.76,1.76 L1.76,1.76 C-0.579627024,4.10254037 -0.579627024,7.89745963 1.76,10.24 L129.76,138.24 C132.10254,140.579627 135.89746,140.579627 138.24,138.24 L138.24,138.24 C140.579627,135.89746 140.579627,132.10254 138.24,129.76 L138.24,129.76 Z M117.5,20 C118.880712,20 120,21.1192881 120,22.5 L120,77.5 C120,78.8807119 118.880712,80 117.5,80 L88.5,80 L28.5,20 L117.5,20 Z" />
</svg>