<svg viewBox="0 0 140 140" preserveAspectRatio="xMidYMid meet" id="vidon">
    <path d="M126.583333,43.75 L109.083333,53.6666667 C106.75,54.8333333 105,57.75 105,60.6666667 L105,82.25 C105,85.1666667 106.75,88.0833333 109.083333,89.25 L126.583333,99.1666667 C130.666667,101.5 135.916667,100.333333 138.833333,96.25 C139.416667,95.0833333 140,93.3333333 140,92.1666667 L140,50.75 C140,46.0833333 135.916667,42 131.25,42 C129.5,42 128.333333,42.5833333 126.583333,43.75 Z M90.4166667,36.1666667 L20.4166667,36.1666667 C15.75,36.1666667 11.6666667,40.25 11.6666667,45.5 L11.6666667,97.4166667 C11.6666667,102.666667 15.75,106.166667 20.4166667,106.166667 L89.8333333,106.166667 C95.0833333,106.166667 98.5833333,102.083333 98.5833333,97.4166667 L98.5833333,45.5 C99.1666667,40.25 95.0833333,36.1666667 90.4166667,36.1666667 Z" />
</svg>