<svg viewBox="0 0 140 140" preserveAspectRatio="xMidYMid meet" id="vidoff">
    <path d="M18.4625,37.52 C18.0333847,37.0944592 17.3869091,36.9762862 16.835,37.2225 C13.6893741,38.6337568 11.6656953,41.7606374 11.6666663,45.2083333 L11.6666663,97.7083333 C11.6666663,102.540825 15.5841751,106.458336 20.4166667,106.458336 L83.8775,106.458336 C84.4681509,106.45939 85.0011122,106.104067 85.2272876,105.558435 C85.4534629,105.012803 85.3281825,104.384625 84.91,103.9675 L18.4625,37.52 Z M126.799167,43.4641667 L109.299167,53.445 C106.662886,54.9294253 105.022706,57.7112777 105,60.7366667 L105,82.18 C105.02512,85.20472 106.66464,87.9854529 109.299167,89.4716667 L126.799167,99.4525 C129.466246,101.029886 132.76868,101.079055 135.481536,99.581769 C138.194393,98.084483 139.91304,95.2640681 140,92.1666667 L140,50.75 C139.91304,47.6525985 138.194393,44.8321837 135.481536,43.3348976 C132.76868,41.8376116 129.466246,41.8867805 126.799167,43.4641667 L126.799167,43.4641667 Z M99.5925,91.3441667 C99.3186207,91.0705084 99.1653304,90.6988319 99.1666667,90.3116667 L99.1666667,45.2083333 C99.1666667,40.3758418 95.2491582,36.4583333 90.4166667,36.4583333 L45.3133333,36.4583333 C44.9261681,36.4596696 44.5544916,36.3063793 44.2808333,36.0325 L9.9575,1.70916667 C7.98091166,-0.265894464 4.88135785,-0.561905522 2.56666667,1.00333333 C2.25868982,1.21034001 1.97151255,1.44672403 1.70916667,1.70916667 C-0.568061307,3.98708247 -0.568061307,7.6795842 1.70916667,9.9575 L130.0425,138.290833 C132.331377,140.501505 135.969661,140.469889 138.219775,138.219775 C140.469889,135.969661 140.501505,132.331377 138.290833,130.0425 L99.5925,91.3441667 Z"/>
</svg>